<svg width="171" height="32" viewBox="0 0 171 32" fill="none" xmlns="http://www.w3.org/2000/svg">
<g clip-path="url(#clip0_1635_1271)">
<path d="M0 19.2257H12.7547V31.9804H0V19.2257Z" fill="#22AC39"/>
<path d="M0 0.0195312H12.7547V12.7743L6.3856 6.40513L0 0.0195312Z" fill="#E72511"/>
<path d="M17.4946 0.0195312V31.9804C21.7329 31.9804 25.7976 30.2968 28.7945 27.2999C31.7914 24.3029 33.4751 20.2383 33.4751 16C33.4751 11.7617 31.7914 7.69701 28.7945 4.7001C25.7976 1.70318 21.7329 0.0195313 17.4946 0.0195312Z" fill="#005CAC"/>
<path d="M79.7211 13.087C79.1645 13.087 78.6204 12.9219 78.1576 12.6127C77.6948 12.3034 77.3341 11.8639 77.1211 11.3497C76.9081 10.8354 76.8524 10.2696 76.9609 9.72366C77.0695 9.17774 77.3376 8.67629 77.7312 8.2827C78.1247 7.88912 78.6262 7.62109 79.1721 7.5125C79.718 7.40391 80.2839 7.45964 80.7981 7.67265C81.3124 7.88565 81.7519 8.24636 82.0611 8.70917C82.3704 9.17197 82.5354 9.71608 82.5354 10.2727C82.5311 11.0178 82.2332 11.7311 81.7064 12.2579C81.1795 12.7848 80.4662 13.0826 79.7211 13.087ZM77.2525 15.7531H82.1569V28.0964H77.2525V15.7531ZM124.453 28.0964V12.2312H129.391V15.7367C129.659 15.0732 130.031 14.4566 130.493 13.9098C131.793 12.3793 133.044 12.0008 135.826 12.0008H136.105V15.5721H135.924C135.289 15.5188 134.649 15.5917 134.042 15.7866C133.434 15.9815 132.872 16.2945 132.386 16.7077C131.391 17.5649 130.605 18.6372 130.086 19.8433C129.567 21.0494 129.329 22.3577 129.391 23.6693V28.0964H124.453ZM141.652 28.0964V15.5885H138.673V12.0008H141.652V7.14573H146.572V12.0008H149.518V15.5885H146.572V28.0964H141.652ZM159.772 28.5737C157.541 28.5737 155.402 27.6876 153.825 26.1105C152.248 24.5333 151.362 22.3942 151.362 20.1638C151.362 17.9333 152.248 15.7943 153.825 14.2171C155.402 12.6399 157.541 11.7539 159.772 11.7539C161.551 11.7609 163.281 12.3377 164.709 13.3997L165.598 14.058V12.2312H170.206V28.0964H165.598V26.3519L164.709 26.9937C163.273 28.0312 161.543 28.5846 159.772 28.5737ZM160.232 15.5885C159.327 15.5885 158.443 15.8569 157.69 16.3596C156.938 16.8623 156.352 17.5769 156.005 18.4129C155.659 19.2489 155.568 20.1689 155.745 21.0564C155.922 21.9439 156.357 22.7591 156.997 23.399C157.637 24.0388 158.452 24.4746 159.34 24.6511C160.227 24.8277 161.147 24.737 161.983 24.3908C162.819 24.0445 163.534 23.458 164.037 22.7057C164.539 21.9533 164.808 21.0687 164.808 20.1638C164.808 18.9504 164.326 17.7866 163.468 16.9286C162.61 16.0706 161.446 15.5885 160.232 15.5885ZM84.6585 12.0008H89.6287L93.9077 19.6865L98.2032 12.0008H103.157L93.9077 28.0141L84.6585 12.0008ZM112.143 28.656C109.861 28.6824 107.662 27.8034 106.027 26.2117C104.392 24.62 103.455 22.4453 103.42 20.1638C103.42 17.8504 104.339 15.6318 105.975 13.996C107.611 12.3602 109.829 11.4412 112.143 11.4412C114.456 11.4412 116.675 12.3602 118.311 13.996C119.946 15.6318 120.865 17.8504 120.865 20.1638V20.7563H108.621V21.25C108.613 21.3925 108.613 21.5354 108.621 21.6779C108.625 22.1447 108.721 22.6061 108.904 23.0358C109.087 23.4655 109.352 23.8549 109.685 24.182C110.019 24.509 110.413 24.7672 110.846 24.9419C111.279 25.1165 111.742 25.2042 112.209 25.1998C112.768 25.1973 113.319 25.0652 113.819 24.8139C114.319 24.5627 114.753 24.199 115.089 23.7516H120.026C119.303 25.2247 118.18 26.4652 116.787 27.3322C115.393 28.1992 113.784 28.6578 112.143 28.656ZM112.275 14.8315C111.413 14.8236 110.579 15.1302 109.927 15.6938C109.276 16.2573 108.852 17.0391 108.736 17.8926V18.518H115.994L115.912 17.8926C115.787 17.0249 115.347 16.2334 114.676 15.669C114.006 15.1045 113.151 14.8064 112.275 14.8315ZM48.7642 28.0964V4.26563H61.9303C63.4951 4.26562 65.0445 4.57383 66.4902 5.17263C67.9358 5.77143 69.2494 6.64912 70.3558 7.75556C71.4622 8.86201 72.3399 10.1756 72.9387 11.6212C73.5375 13.0668 73.8457 14.6163 73.8457 16.181C73.8457 17.7458 73.5375 19.2952 72.9387 20.7408C72.3399 22.1865 71.4622 23.5 70.3558 24.6065C69.2494 25.7129 67.9358 26.5906 66.4902 27.1894C65.0445 27.7882 63.4951 28.0964 61.9303 28.0964H48.7642ZM54.3104 23.8009H60.3998C62.4207 23.8009 64.3589 22.9981 65.7879 21.5691C67.2169 20.1401 68.0197 18.2019 68.0197 16.181C68.0197 14.1601 67.2169 12.2219 65.7879 10.7929C64.3589 9.3639 62.4207 8.56109 60.3998 8.56109H54.3104V23.8009Z" fill="#594F4A"/>
</g>
<defs>
<clipPath id="clip0_1635_1271">
<rect width="170.272" height="32" fill="white"/>
</clipPath>
</defs>
</svg>
